<?xml version="1.0" standalone="no"?><!DOCTYPE svg PUBLIC "-//W3C//DTD SVG 1.1//EN" "http://www.w3.org/Graphics/SVG/1.1/DTD/svg11.dtd"><svg t="1678024118337" class="icon" viewBox="0 0 1024 1024" version="1.1" xmlns="http://www.w3.org/2000/svg" p-id="1941" xmlns:xlink="http://www.w3.org/1999/xlink" width="20" height="20"><path d="M512 960.13L251.06 699.11c-71.15-70.33-110.32-164.02-110.32-263.99 0-204.71 166.55-371.25 371.25-371.25s371.25 166.54 371.25 371.25c0 100.04-39.22 193.8-110.46 264.13l-1.19 1.26L512 960.13z m0-832.29c-169.44 0-307.28 137.85-307.28 307.28 0 83.11 32.72 160.99 92.12 219.29l1.84 1.96L512 869.66l215.16-215.25c59.4-58.29 92.12-136.17 92.12-219.29 0-169.43-137.84-307.28-307.28-307.28z" p-id="1942" fill="#A4B2C1"></path><path d="M512 590.36c-91.72 0-166.34-74.63-166.34-166.35S420.28 257.66 512 257.66c91.73 0 166.36 74.63 166.36 166.35S603.73 590.36 512 590.36z m0-268.73c-56.45 0-102.37 45.93-102.37 102.38S455.55 526.39 512 526.39s102.38-45.93 102.38-102.38S568.45 321.63 512 321.63z" p-id="1943" fill="#A4B2C1"></path></svg>